<?xml version="1.0" encoding="utf-8"?>
<!--
	Vector extracted from official Cards Against Humanity PDF:
	https://cardsagainsthumanity.com/
	https://s3.amazonaws.com/cah/CAH_MainGame.pdf
	Licensed under CC BY-NC-SA 2.0
-->
<!DOCTYPE svg PUBLIC "-//W3C//DTD SVG 1.1//EN" "http://www.w3.org/Graphics/SVG/1.1/DTD/svg11.dtd">
<svg version="1.1" id="Layer_1" xmlns="http://www.w3.org/2000/svg" xmlns:xlink="http://www.w3.org/1999/xlink" x="0px" y="0px"
	 width="17px" height="16px" viewBox="0 0 17 16" enable-background="new 0 0 17 16" xml:space="preserve">
<g>
	<path fill="#231F20" d="M1.024,3.67c0,0-0.693,0.252-0.441,0.945l3.855,10.591c0,0,0.252,0.693,0.944,0.441l7.128-2.594
		c0,0,0.692-0.252,0.44-0.945L9.095,1.517c0,0-0.252-0.692-0.944-0.44L1.024,3.67z"/>
	<path fill="#231F20" d="M1.089,3.849C1.002,3.882,0.586,4.068,0.762,4.551l3.854,10.59c0.031,0.086,0.216,0.505,0.701,0.328
		l7.127-2.595c0.085-0.031,0.503-0.217,0.327-0.701L8.917,1.582C8.885,1.497,8.698,1.079,8.215,1.254L1.089,3.849z M5.095,15.892
		c-0.215,0-0.413-0.078-0.575-0.232c-0.177-0.168-0.253-0.367-0.261-0.389L0.404,4.681C0.277,4.33,0.336,4,0.571,3.752
		C0.738,3.576,0.936,3.5,0.958,3.492l7.126-2.594c0.691-0.25,1.08,0.253,1.189,0.554l3.857,10.591
		c0.25,0.691-0.253,1.082-0.555,1.19l-7.128,2.595C5.327,15.871,5.208,15.892,5.095,15.892"/>
	<path fill="#FFFFFF" d="M8.294,0.304c0,0-0.731-0.09-0.821,0.643L6.1,12.136c0,0-0.09,0.731,0.641,0.822l7.532,0.924
		c0,0,0.731,0.091,0.822-0.642l1.374-11.19c0,0,0.09-0.73-0.643-0.82L8.294,0.304z"/>
	<path fill="#231F20" d="M8.203,0.49c-0.16,0-0.489,0.053-0.542,0.48L6.289,12.16c-0.01,0.09-0.034,0.547,0.476,0.609l7.532,0.925
		c0.086,0.012,0.546,0.036,0.61-0.476l1.374-11.19c0.009-0.091,0.033-0.547-0.478-0.609L8.272,0.494
		C8.257,0.492,8.233,0.49,8.203,0.49 M14.346,14.076c-0.056,0-0.092-0.004-0.097-0.005l-7.532-0.925
		c-0.727-0.088-0.845-0.715-0.806-1.033L7.284,0.923c0.09-0.728,0.713-0.852,1.035-0.808l7.531,0.926
		c0.37,0.045,0.638,0.247,0.751,0.569c0.081,0.229,0.059,0.439,0.057,0.463l-1.375,11.191c-0.033,0.267-0.142,0.475-0.325,0.617
		C14.744,14.05,14.483,14.076,14.346,14.076"/>
</g>
</svg>
