<?xml version="1.0" encoding="utf-8"?>
<!--
	Vector extracted from official Cards Against Humanity PDF:
	https://cardsagainsthumanity.com/
	https://s3.amazonaws.com/cah/CAH_MainGame.pdf
	Licensed under CC BY-NC-SA 2.0
-->
<!DOCTYPE svg PUBLIC "-//W3C//DTD SVG 1.1//EN" "http://www.w3.org/Graphics/SVG/1.1/DTD/svg11.dtd">
<svg version="1.1" id="Layer_1" xmlns="http://www.w3.org/2000/svg" xmlns:xlink="http://www.w3.org/1999/xlink" x="0px" y="0px"
	 width="17px" height="16px" viewBox="0 0 17 16" enable-background="new 0 0 17 16" xml:space="preserve">
<path fill="#231F20" d="M1.023,3.67c0,0-0.693,0.252-0.441,0.945l3.855,10.591c0,0,0.252,0.693,0.945,0.441l7.128-2.594
	c0,0,0.692-0.252,0.44-0.945L9.096,1.517c0,0-0.252-0.692-0.945-0.44L1.023,3.67z"/>
<path fill="#231F20" d="M1.089,3.849C1.002,3.882,0.586,4.067,0.762,4.551l3.855,10.59c0.031,0.086,0.216,0.505,0.701,0.328
	l7.127-2.595c0.085-0.031,0.503-0.217,0.327-0.701L8.917,1.582C8.885,1.497,8.698,1.079,8.215,1.254L1.089,3.849z M5.095,15.892
	c-0.215,0-0.413-0.078-0.575-0.232c-0.177-0.168-0.253-0.367-0.261-0.389L0.404,4.681C0.277,4.33,0.336,4,0.571,3.752
	C0.738,3.576,0.936,3.5,0.959,3.492l7.126-2.594c0.691-0.25,1.08,0.253,1.189,0.554l3.856,10.59c0.25,0.691-0.252,1.082-0.553,1.19
	l-7.129,2.595C5.327,15.87,5.208,15.892,5.095,15.892"/>
<path fill="none" stroke="#FFFFFF" stroke-width="0.25" stroke-miterlimit="10" d="M1.089,3.849
	C1.002,3.882,0.586,4.067,0.762,4.551l3.855,10.59c0.031,0.086,0.216,0.505,0.701,0.328l7.127-2.595
	c0.085-0.031,0.503-0.217,0.327-0.701L8.917,1.582C8.885,1.497,8.698,1.079,8.215,1.254L1.089,3.849z M5.095,15.892
	c-0.215,0-0.413-0.078-0.575-0.232c-0.177-0.168-0.253-0.367-0.261-0.389L0.404,4.681C0.277,4.33,0.336,4,0.571,3.752
	C0.738,3.576,0.936,3.5,0.959,3.492l7.126-2.594c0.691-0.25,1.08,0.253,1.189,0.554l3.856,10.59c0.25,0.691-0.252,1.082-0.553,1.19
	l-7.129,2.595C5.327,15.87,5.208,15.892,5.095,15.892z"/>
<path fill="#FFFFFF" d="M8.295,0.304c0,0-0.732-0.09-0.822,0.642L6.1,12.136c0,0-0.09,0.731,0.641,0.822l7.532,0.924
	c0,0,0.732,0.091,0.822-0.642l1.373-11.19c0,0,0.091-0.731-0.642-0.821L8.295,0.304z"/>
<path fill="#231F20" d="M8.202,0.489c-0.159,0-0.488,0.053-0.541,0.481L6.289,12.159c-0.01,0.09-0.034,0.547,0.476,0.609
	l7.531,0.925c0.086,0.012,0.546,0.036,0.609-0.476l1.375-11.19c0.009-0.09,0.033-0.546-0.478-0.609l-7.53-0.926
	C8.257,0.491,8.232,0.489,8.202,0.489 M14.347,14.075c-0.057,0-0.093-0.004-0.098-0.005l-7.532-0.925
	c-0.727-0.088-0.845-0.715-0.806-1.033L7.284,0.923c0.09-0.728,0.713-0.852,1.035-0.807l7.532,0.925
	c0.369,0.045,0.637,0.247,0.75,0.569c0.082,0.229,0.059,0.44,0.057,0.463l-1.375,11.191c-0.033,0.267-0.141,0.475-0.325,0.617
	C14.743,14.05,14.483,14.075,14.347,14.075"/>
</svg>
